<svg xmlns="http://www.w3.org/2000/svg" viewBox="0 0 560 235" role="img" aria-label="Bagan contoh: alur pengembangan produk"><style>.lb{font-size:11px;fill:#141414;text-anchor:middle}.lbw{font-size:11px;fill:#fff;text-anchor:middle}.lbs{font-size:10px;fill:#141414;text-anchor:middle}.c1{fill:#9d9d9d;stroke:#4d4d4d;stroke-width:1.6}.c2{fill:#8a8a8a;stroke:#4d4d4d;stroke-width:1.6}.c3{fill:#ababab;stroke:#4d4d4d;stroke-width:1.6}.ar{fill:#111}.arl{stroke:#111;stroke-width:3;fill:none;marker-end:url(#ah)}.cyc{fill:none;stroke-width:10}text{font-family:Arial,Helvetica,sans-serif}</style><rect x="0" y="0" width="100%" height="100%" fill="#ffffff"></rect>
      <rect class="bxf" x="10" y="20" width="125" height="52"></rect>
      <text class="lb" x="72" y="42">Analisis</text><text class="lb" x="72" y="58">Kebutuhan</text>
      <use href="#barrow" x="142" y="29" class="ar"></use>
      <rect class="bxf" x="195" y="20" width="125" height="52"></rect>
      <text class="lb" x="257" y="42">Analisis</text><text class="lb" x="257" y="58">Kurikulum</text>
      <use href="#barrow" x="327" y="29" class="ar"></use>
      <rect class="bxf" x="380" y="20" width="140" height="52"></rect>
      <text class="lb" x="450" y="42">Pengembangan</text><text class="lb" x="450" y="58">Produk Awal</text>
      <path class="arl" d="M 528 46 C 552 60 552 92 528 108"></path>
      <rect class="bxf" x="430" y="115" width="95" height="52"></rect>
      <text class="lb" x="477" y="137">Validasi</text><text class="lb" x="477" y="153">Ahli</text>
      <use href="#barrow" x="378" y="124" class="ar" transform="translate(806,0) scale(-1,1)"></use>
      <rect class="bxf" x="280" y="115" width="90" height="52"></rect>
      <text class="lb" x="325" y="137">Revisi</text><text class="lb" x="325" y="153">Produk</text>
      <use href="#barrow" x="228" y="124" class="ar" transform="translate(656,0) scale(-1,1)"></use>
      <rect class="bxf" x="80" y="115" width="140" height="52"></rect>
      <text class="lb" x="150" y="145">Uji Coba Lapangan</text>
      <path class="arl" d="M 74 141 C 40 152 40 186 74 197"></path>
      <rect class="bxf" x="105" y="180" width="125" height="48"></rect>
      <text class="lb" x="167" y="200">Revisi Produk</text><text class="lb" x="167" y="216">Akhir</text>
    </svg>