<svg xmlns="http://www.w3.org/2000/svg" viewBox="0 0 420 210" role="img" aria-label="Grafik penjualan ikan mas, ikan lele, ikan mujair 2020-2024">
          <line x1="50" y1="180" x2="400" y2="180" stroke="#111" stroke-width="1.3"></line>
          <line x1="50" y1="10" x2="50" y2="190" stroke="#111" stroke-width="1.3"></line>
          <text x="404" y="184" font-size="10">Tahun</text>
          <g font-size="9" fill="#333" text-anchor="end">
            <text x="46" y="150">600</text><text x="46" y="122">700</text><text x="46" y="94">800</text><text x="46" y="66">900</text><text x="46" y="38">1.000</text>
          </g>
          <g font-size="9" fill="#333" text-anchor="middle">
            <text x="90" y="194">2020</text><text x="160" y="194">2021</text><text x="230" y="194">2022</text><text x="300" y="194">2023</text><text x="370" y="194">2024</text>
          </g>
          <polyline points="90,150 160,122 230,94 300,66 370,38" fill="none" stroke="#1d4e79" stroke-width="2" stroke-dasharray="7 4"></polyline>
          <polyline points="90,66 160,94 230,94 300,66 370,38" fill="none" stroke="#c0392b" stroke-width="2"></polyline>
          <polyline points="90,94 160,38 230,94 300,122 370,66" fill="none" stroke="#2e7d32" stroke-width="2" stroke-dasharray="2 3"></polyline>
          <g fill="#1d4e79"><circle cx="90" cy="150" r="3"></circle><circle cx="160" cy="122" r="3"></circle><circle cx="230" cy="94" r="3"></circle><circle cx="300" cy="66" r="3"></circle><circle cx="370" cy="38" r="3"></circle></g>
          <g fill="#c0392b"><circle cx="90" cy="66" r="3"></circle><circle cx="160" cy="94" r="3"></circle><circle cx="230" cy="94" r="3"></circle><circle cx="300" cy="66" r="3"></circle><circle cx="370" cy="38" r="3"></circle></g>
          <g fill="#2e7d32"><circle cx="90" cy="94" r="3"></circle><circle cx="160" cy="38" r="3"></circle><circle cx="230" cy="94" r="3"></circle><circle cx="300" cy="122" r="3"></circle><circle cx="370" cy="66" r="3"></circle></g>
          <g font-size="9"><text x="60" y="206" fill="#1d4e79">- - - ikan mas</text><text x="150" y="206" fill="#c0392b">— ikan lele</text><text x="230" y="206" fill="#2e7d32">… ikan mujair</text></g>
        </svg>